# xmcd
#
# Track frame offsets: 
#        150
#        14990
#        29332
#        45381
#        59748
#        76525
#        90857
#        105383
#        117873
#        133102
#
# Disc length: 2057 seconds
#
# Revision: 0
# Processed by: cddbd v1.5.2PL0 Copyright (c) Steve Scherf et al.
# Submitted via: ExactAudioCopy v1.3
#
DISCID=7608070a
DTITLE=Samantha Martin and Delta Sugar - Run To Me
DYEAR=2018
DGENRE=Blues
TTITLE0=You´re the Love
TTITLE1=Gonna Find It
TTITLE2=Will We Ever Learn
TTITLE3=Wanna Be Your Lover
TTITLE4=Chasing Dreams
TTITLE5=Good Trouble
TTITLE6=Over You
TTITLE7=This Night Is Mine
TTITLE8=Only So Much
TTITLE9=All Night Long
EXTD=
EXTT0=
EXTT1=
EXTT2=
EXTT3=
EXTT4=
EXTT5=
EXTT6=
EXTT7=
EXTT8=
EXTT9=
PLAYORDER=
